<?xml version="1.0" encoding="utf-8"?>
<!-- Generator: Adobe Illustrator 16.0.0, SVG Export Plug-In . SVG Version: 6.00 Build 0)  -->
<!DOCTYPE svg PUBLIC "-//W3C//DTD SVG 1.1//EN" "http://www.w3.org/Graphics/SVG/1.1/DTD/svg11.dtd">
<svg version="1.1" id="Calque_1" xmlns="http://www.w3.org/2000/svg" xmlns:xlink="http://www.w3.org/1999/xlink" x="0px" y="0px"
	 width="345.946px" height="44.594px" viewBox="0 0 345.946 44.594" enable-background="new 0 0 345.946 44.594"
	 xml:space="preserve">
<g>
	<g>
		<defs>
			<polygon id="SVGID_1_" points="15.515,31.586 333.801,31.586 333.801,8.043 15.515,8.043 15.515,31.586 			"/>
		</defs>
		<clipPath id="SVGID_2_">
			<use xlink:href="#SVGID_1_"  overflow="visible"/>
		</clipPath>
	</g>
</g>
<line fill="none" stroke="#7F7F7F" stroke-miterlimit="10" x1="29.181" y1="30.869" x2="51.847" y2="8.202"/>
<line fill="none" stroke="#7F7F7F" stroke-miterlimit="10" x1="16.325" y1="30.869" x2="38.991" y2="8.202"/>
<line fill="none" stroke="#7F7F7F" stroke-miterlimit="10" x1="42.035" y1="30.869" x2="64.701" y2="8.202"/>
<line fill="none" stroke="#7F7F7F" stroke-miterlimit="10" x1="67.746" y1="30.869" x2="90.412" y2="8.202"/>
<line fill="none" stroke="#7F7F7F" stroke-miterlimit="10" x1="54.891" y1="30.869" x2="77.557" y2="8.202"/>
<line fill="none" stroke="#7F7F7F" stroke-miterlimit="10" x1="80.601" y1="30.869" x2="103.267" y2="8.202"/>
<line fill="none" stroke="#7F7F7F" stroke-miterlimit="10" x1="106.312" y1="30.869" x2="128.978" y2="8.202"/>
<line fill="none" stroke="#7F7F7F" stroke-miterlimit="10" x1="93.456" y1="30.869" x2="116.122" y2="8.202"/>
<line fill="none" stroke="#7F7F7F" stroke-miterlimit="10" x1="119.166" y1="30.869" x2="141.832" y2="8.202"/>
<line fill="none" stroke="#7F7F7F" stroke-miterlimit="10" x1="144.877" y1="30.869" x2="167.543" y2="8.202"/>
<line fill="none" stroke="#7F7F7F" stroke-miterlimit="10" x1="132.021" y1="30.869" x2="154.688" y2="8.202"/>
<line fill="none" stroke="#7F7F7F" stroke-miterlimit="10" x1="157.731" y1="30.869" x2="180.397" y2="8.202"/>
<line fill="none" stroke="#7F7F7F" stroke-miterlimit="10" x1="183.441" y1="30.869" x2="206.107" y2="8.202"/>
<line fill="none" stroke="#7F7F7F" stroke-miterlimit="10" x1="170.587" y1="30.869" x2="193.253" y2="8.202"/>
<line fill="none" stroke="#7F7F7F" stroke-miterlimit="10" x1="196.297" y1="30.869" x2="218.963" y2="8.202"/>
<line fill="none" stroke="#7F7F7F" stroke-miterlimit="10" x1="222.007" y1="30.869" x2="244.673" y2="8.202"/>
<line fill="none" stroke="#7F7F7F" stroke-miterlimit="10" x1="209.152" y1="30.869" x2="231.818" y2="8.202"/>
<line fill="none" stroke="#7F7F7F" stroke-miterlimit="10" x1="234.862" y1="30.869" x2="257.528" y2="8.202"/>
<line fill="none" stroke="#7F7F7F" stroke-miterlimit="10" x1="260.572" y1="30.869" x2="283.238" y2="8.202"/>
<line fill="none" stroke="#7F7F7F" stroke-miterlimit="10" x1="247.718" y1="30.869" x2="270.384" y2="8.202"/>
<line fill="none" stroke="#7F7F7F" stroke-miterlimit="10" x1="273.428" y1="30.869" x2="296.094" y2="8.202"/>
<line fill="none" stroke="#7F7F7F" stroke-miterlimit="10" x1="299.138" y1="30.869" x2="321.804" y2="8.202"/>
<line fill="none" stroke="#7F7F7F" stroke-miterlimit="10" x1="286.283" y1="30.869" x2="308.949" y2="8.202"/>
<line fill="none" stroke="#7F7F7F" stroke-miterlimit="10" x1="311.993" y1="30.869" x2="334.659" y2="8.202"/>
</svg>
